<svg xmlns="http://www.w3.org/2000/svg" xmlns:xlink="http://www.w3.org/1999/xlink" width="93.10052" height="93.10052" viewBox="0 0 93.10052 93.10052">
  <defs>
    <linearGradient id="Degradado_sin_nombre_39" data-name="Degradado sin nombre 39" x1="46.55026" y1="0.44513" x2="46.55026" y2="100.44651" gradientUnits="userSpaceOnUse">
      <stop offset="0.00134" stop-color="#ffffb8"/>
      <stop offset="0.99955" stop-color="#c89600"/>
    </linearGradient>
    <linearGradient id="Degradado_sin_nombre_66" data-name="Degradado sin nombre 66" x1="23.15872" y1="69.64367" x2="71.50176" y2="22.70595" gradientUnits="userSpaceOnUse">
      <stop offset="0" stop-color="#1c1432"/>
      <stop offset="0.99554" stop-color="#43314f"/>
    </linearGradient>
    <linearGradient id="Безымянный_градиент_2" data-name="Безымянный градиент 2" x1="-2.18734" y1="28.87446" x2="47.44977" y2="28.87446" gradientTransform="translate(24.66186 16.74477)" gradientUnits="userSpaceOnUse">
      <stop offset="0" stop-color="#9f734c"/>
      <stop offset="0.13348" stop-color="#ba945f"/>
      <stop offset="0.2778" stop-color="#d2b16e"/>
      <stop offset="0.42194" stop-color="#e3c67a"/>
      <stop offset="0.56432" stop-color="#edd281"/>
      <stop offset="0.70303" stop-color="#f0d683"/>
      <stop offset="0.75465" stop-color="#e8cc7e"/>
      <stop offset="0.84181" stop-color="#d2b26f"/>
      <stop offset="0.95321" stop-color="#af8757"/>
      <stop offset="1" stop-color="#9f734c"/>
    </linearGradient>
  </defs>
  <g id="Layer_2" data-name="Layer 2">
    <g id="OBJECTS">
      <g>
        <path d="M46.55029,0A46.55026,46.55026,0,1,0,93.10052,46.55023,46.55025,46.55025,0,0,0,46.55029,0ZM46.744,84.46088A37.71689,37.71689,0,1,1,84.46088,46.744,37.71687,37.71687,0,0,1,46.744,84.46088Z" fill="url(#Degradado_sin_nombre_39)"/>
        <g opacity="0.53">
          <path d="M11.22632,16.25134C16.17424,20.74771,24.13092,8.12567,38.5072,5.074c12.3549-2.62262,21.981,3.95315,27.28089-.91025A46.51865,46.51865,0,0,0,11.22632,16.25134Z" fill="#fff"/>
        </g>
        <g opacity="0.42">
          <path d="M4.45233,47.61924c0-9.76208,2.39673-17.6758,5.35325-17.6758s-1.41207,7.91372-1.41207,17.6758S12.76209,65.295,9.80558,65.295,4.45233,57.38131,4.45233,47.61924Z" fill="#ff9"/>
        </g>
        <g opacity="0.42">
          <path d="M89.45055,47.61924c0,9.76207-2.39673,17.67579-5.35324,17.67579s1.41206-7.91372,1.41206-17.67579-4.36858-17.6758-1.41206-17.6758S89.45055,37.85716,89.45055,47.61924Z" fill="#ff9"/>
        </g>
        <path d="M46.744,6.61139A40.1326,40.1326,0,1,0,86.87659,46.744,40.13263,40.13263,0,0,0,46.744,6.61139Zm0,77.84949A37.71689,37.71689,0,1,1,84.46088,46.744,37.71687,37.71687,0,0,1,46.744,84.46088Z" fill="#ff9"/>
        <circle cx="46.744" cy="46.74401" r="33.69048" fill="url(#Degradado_sin_nombre_66)"/>
      </g>
      <path d="M52.15993,55.66888a4.788,4.788,0,0,0-2.9693,1.75329c-1.46032,1.252-2.84143,2.29432-4.70971,1.83637-1.86817-.45807-4.60547-3.032-5.961-4.38727-1.35529-1.35553-3.9292-4.09283-4.38727-5.96112-.458-1.86816.58435-3.24939,1.83636-4.7096a4.78848,4.78848,0,0,0,1.7533-2.96929c.34784-1.92652-3.26227-7.35981-4.807-8.66248-4.6972-3.96143-9.9566-.409-10.40515,4.94269-.55511,6.621,5.47217,15.44726,11.69721,21.6723,6.225,6.225,15.05139,12.25238,21.67236,11.69727,5.35162-.44861,8.90411-5.708,4.94269-10.40516C59.51974,58.93115,54.08645,55.321,52.15993,55.66888Zm2.98877-8.61145a1.66226,1.66226,0,0,0,1.30261,1.28723,1.23289,1.23289,0,0,0,.13642.013.932.932,0,0,0,.96588-1.1897A14.9627,14.9627,0,0,0,45.9883,35.25866a.93881.93881,0,0,0-1.21057.93567,1.64624,1.64624,0,0,0,1.23987,1.49445A11.64808,11.64808,0,0,1,55.1487,47.05743ZM45.49184,27.51507a.93808.93808,0,0,0-1.20422.94177A1.64654,1.64654,0,0,0,45.533,29.94708c9.90741,2.21246,15.78906,8.5559,17.01068,18.34368A1.65535,1.65535,0,0,0,63.86,49.66143c.01794.00293.03582.00562.0534.00672a.92659.92659,0,0,0,1.06079-1.1C63.592,37.48815,56.67263,30.01116,45.49184,27.51507Zm-.64862-7.1731a.92206.92206,0,0,0-1.15381,1.00238,1.65132,1.65132,0,0,0,1.29273,1.45191c14.6225,2.69,22.0083,10.66461,24.69671,26.66382a1.66014,1.66014,0,0,0,1.30738,1.31518c.03662.0058.0722.00971.10858.0119a.93037.93037,0,0,0,.99859-1.1607C69.18331,32.30645,60.7795,23.27447,44.84322,20.342Z" fill="url(#Безымянный_градиент_2)"/>
    </g>
  </g>
</svg>
