<svg xmlns="http://www.w3.org/2000/svg" xmlns:xlink="http://www.w3.org/1999/xlink" width="93.10052" height="93.10052" viewBox="0 0 93.10052 93.10052">
  <defs>
    <linearGradient id="Degradado_sin_nombre_39" data-name="Degradado sin nombre 39" x1="46.55026" y1="0.44513" x2="46.55026" y2="100.44651" gradientUnits="userSpaceOnUse">
      <stop offset="0.00134" stop-color="#ffffb8"/>
      <stop offset="0.99955" stop-color="#c89600"/>
    </linearGradient>
    <linearGradient id="Degradado_sin_nombre_66" data-name="Degradado sin nombre 66" x1="23.15872" y1="69.64367" x2="71.50176" y2="22.70595" gradientUnits="userSpaceOnUse">
      <stop offset="0" stop-color="#1c1432"/>
      <stop offset="0.99554" stop-color="#43314f"/>
    </linearGradient>
    <linearGradient id="Degradado_sin_nombre_39-2" x1="46.55026" y1="23.1198" x2="46.55026" y2="70.97644" xlink:href="#Degradado_sin_nombre_39"/>
    <linearGradient id="Degradado_sin_nombre_39-3" x1="46.1677" y1="34.80512" x2="46.1677" y2="59.42357" xlink:href="#Degradado_sin_nombre_39"/>
    <linearGradient id="Degradado_sin_nombre_39-4" x1="58.9508" y1="31.45234" x2="58.9508" y2="37.21299" xlink:href="#Degradado_sin_nombre_39"/>
  </defs>
  <g id="Layer_2" data-name="Layer 2">
    <g id="OBJECTS">
      <g>
        <g>
          <path d="M46.55029,0A46.55026,46.55026,0,1,0,93.10052,46.55023,46.55025,46.55025,0,0,0,46.55029,0ZM46.744,84.46088A37.71689,37.71689,0,1,1,84.46088,46.744,37.71687,37.71687,0,0,1,46.744,84.46088Z" fill="url(#Degradado_sin_nombre_39)"/>
          <g opacity="0.53">
            <path d="M11.22632,16.25134C16.17424,20.74771,24.13092,8.12567,38.5072,5.074c12.3549-2.62262,21.981,3.95315,27.28089-.91025A46.51865,46.51865,0,0,0,11.22632,16.25134Z" fill="#fff"/>
          </g>
          <g opacity="0.42">
            <path d="M4.45233,47.61924c0-9.76208,2.39673-17.6758,5.35325-17.6758s-1.41207,7.91372-1.41207,17.6758S12.76209,65.295,9.80558,65.295,4.45233,57.38131,4.45233,47.61924Z" fill="#ff9"/>
          </g>
          <g opacity="0.42">
            <path d="M89.45055,47.61924c0,9.76207-2.39673,17.67579-5.35324,17.67579s1.41206-7.91372,1.41206-17.67579-4.36858-17.6758-1.41206-17.6758S89.45055,37.85716,89.45055,47.61924Z" fill="#ff9"/>
          </g>
          <path d="M46.744,6.61139A40.1326,40.1326,0,1,0,86.87659,46.744,40.13263,40.13263,0,0,0,46.744,6.61139Zm0,77.84949A37.71689,37.71689,0,1,1,84.46088,46.744,37.71687,37.71687,0,0,1,46.744,84.46088Z" fill="#ff9"/>
          <circle cx="46.744" cy="46.74401" r="33.69048" fill="url(#Degradado_sin_nombre_66)"/>
          <path d="M25.43329,55.58445V38.64107c.06742-.48328.16851-.96458.19709-1.45016A11.26,11.26,0,0,1,34.71944,26.4436c1.12452-.2436,2.28011-.34379,3.42138-.51H55.08419c.448.06611.894.16823,1.34421.19292,6.27776.34429,10.95733,4.87263,11.11394,11.135q.24722,9.88573-.00684,19.78193A11.08914,11.08914,0,0,1,56.54789,68.03511c-6.62515.17741-13.26165.162-19.8877.00222A11.039,11.039,0,0,1,25.9231,58.91839C25.69455,57.82067,25.59324,56.69645,25.43329,55.58445Z" fill="#1c1432"/>
        </g>
        <g>
          <path d="M22.61923,56.722V37.52075c.0764-.54769.191-1.09314.22335-1.64341A12.76055,12.76055,0,0,1,33.14285,23.69783c1.27438-.27606,2.584-.38961,3.87732-.578H56.22143c.50767.07493,1.0131.19066,1.52334.21864,7.11434.39017,12.41751,5.522,12.595,12.61886q.28015,11.20309-.00775,22.41807A12.5669,12.5669,0,0,1,57.88018,70.83185c-7.508.201-15.02891.18355-22.53794.00251A12.51007,12.51007,0,0,1,23.17431,60.50023C22.9153,59.25623,22.8005,57.98219,22.61923,56.722Zm24.01632,9.86394.00011-.01321c3.51821,0,7.03922.08651,10.55376-.02709a8.66754,8.66754,0,0,0,7.16415-3.51689,9.408,9.408,0,0,0,1.71028-5.53033c.04973-6.83631.12973-13.6752-.003-20.5092-.11374-5.85565-3.39029-9.17747-9.214-9.30679q-10.18924-.22626-20.3869-.00271c-5.88125.13081-9.1506,3.3843-9.27876,9.23327q-.22458,10.2492.00418,20.50681c.1241,5.68774,3.47037,8.95333,9.13607,9.14476C39.75579,66.6806,43.19727,66.58594,46.63555,66.58594Z" fill="url(#Degradado_sin_nombre_39-2)"/>
          <path d="M46.06815,59.423A12.309,12.309,0,1,1,58.47648,47.18572,12.23367,12.23367,0,0,1,46.06815,59.423Zm8.05743-12.28389a7.95543,7.95543,0,1,0-8.00971,7.933A7.88419,7.88419,0,0,0,54.12558,47.13908Z" fill="url(#Degradado_sin_nombre_39-3)"/>
          <path d="M58.9596,31.45238a2.78263,2.78263,0,0,1,2.88,2.8437,2.88745,2.88745,0,0,1-2.85315,2.9169A2.98627,2.98627,0,0,1,56.0621,34.3245,2.88839,2.88839,0,0,1,58.9596,31.45238Z" fill="url(#Degradado_sin_nombre_39-4)"/>
        </g>
      </g>
    </g>
  </g>
</svg>
