<svg xmlns="http://www.w3.org/2000/svg" xmlns:xlink="http://www.w3.org/1999/xlink" width="93.10052" height="93.10052" viewBox="0 0 93.10052 93.10052">
  <defs>
    <linearGradient id="Degradado_sin_nombre_39" data-name="Degradado sin nombre 39" x1="46.55026" y1="0.44513" x2="46.55026" y2="100.44651" gradientUnits="userSpaceOnUse">
      <stop offset="0.00134" stop-color="#ffffb8"/>
      <stop offset="0.99955" stop-color="#c89600"/>
    </linearGradient>
    <linearGradient id="Degradado_sin_nombre_66" data-name="Degradado sin nombre 66" x1="23.15872" y1="69.64367" x2="71.50176" y2="22.70595" gradientUnits="userSpaceOnUse">
      <stop offset="0" stop-color="#1c1432"/>
      <stop offset="0.99554" stop-color="#43314f"/>
    </linearGradient>
    <linearGradient id="Degradado_sin_nombre_39-2" x1="32.40348" y1="38.47715" x2="32.40348" y2="62.90455" gradientTransform="translate(0.05331 -0.03404) rotate(0.06023)" xlink:href="#Degradado_sin_nombre_39"/>
    <linearGradient id="Degradado_sin_nombre_39-3" x1="54.02817" y1="38.22023" x2="54.02817" y2="62.8915" xlink:href="#Degradado_sin_nombre_39"/>
    <linearGradient id="Degradado_sin_nombre_39-4" x1="32.20979" y1="26.95414" x2="32.20979" y2="35.427" xlink:href="#Degradado_sin_nombre_39"/>
  </defs>
  <g id="Layer_2" data-name="Layer 2">
    <g id="OBJECTS">
      <g>
        <g>
          <path d="M46.55029,0A46.55026,46.55026,0,1,0,93.10052,46.55023,46.55025,46.55025,0,0,0,46.55029,0ZM46.744,84.46088A37.71689,37.71689,0,1,1,84.46088,46.744,37.71687,37.71687,0,0,1,46.744,84.46088Z" fill="url(#Degradado_sin_nombre_39)"/>
          <g opacity="0.53">
            <path d="M11.22632,16.25134C16.17424,20.74771,24.13092,8.12567,38.5072,5.074c12.3549-2.62262,21.981,3.95315,27.28089-.91025A46.51865,46.51865,0,0,0,11.22632,16.25134Z" fill="#fff"/>
          </g>
          <g opacity="0.42">
            <path d="M4.45233,47.61924c0-9.76208,2.39673-17.6758,5.35325-17.6758s-1.41207,7.91372-1.41207,17.6758S12.76209,65.295,9.80558,65.295,4.45233,57.38131,4.45233,47.61924Z" fill="#ff9"/>
          </g>
          <g opacity="0.42">
            <path d="M89.45055,47.61924c0,9.76207-2.39673,17.67579-5.35324,17.67579s1.41206-7.91372,1.41206-17.67579-4.36858-17.6758-1.41206-17.6758S89.45055,37.85716,89.45055,47.61924Z" fill="#ff9"/>
          </g>
          <path d="M46.744,6.61139A40.1326,40.1326,0,1,0,86.87659,46.744,40.13263,40.13263,0,0,0,46.744,6.61139Zm0,77.84949A37.71689,37.71689,0,1,1,84.46088,46.744,37.71687,37.71687,0,0,1,46.744,84.46088Z" fill="#ff9"/>
          <circle cx="46.744" cy="46.74401" r="33.69048" fill="url(#Degradado_sin_nombre_66)"/>
        </g>
        <g>
          <rect x="28.54998" y="38.48119" width="7.70699" height="24.41932" transform="translate(-0.05327 0.03409) rotate(-0.06023)" fill="url(#Degradado_sin_nombre_39-2)"/>
          <path d="M57.30013,38.22023c-4.41491.00464-7.17894,2.399-7.68874,4.07526l-.004-3.83239-8.65773.0091c.11371,2.03463.02567,24.4193.02567,24.4193l8.65773-.0091-.01389-13.21433a5.56242,5.56242,0,0,1,.18622-1.99586,4.4105,4.4105,0,0,1,4.17-2.99662c3.006-.00316,4.37541,2.25339,4.37888,5.561l.01328,12.63663L67.1067,62.864,67.09243,49.286C67.08448,41.72242,62.77748,38.21448,57.30013,38.22023Z" fill="url(#Degradado_sin_nombre_39-3)"/>
          <path d="M32.23558,26.95414c-2.84567.003-4.70591,1.83258-4.70338,4.24477A4.26042,4.26042,0,0,0,32.13525,35.427l.05572-.00006c2.89684-.00305,4.69889-1.87857,4.69641-4.24474C36.82913,28.77231,35.07891,26.95116,32.23558,26.95414Z" fill="url(#Degradado_sin_nombre_39-4)"/>
        </g>
      </g>
    </g>
  </g>
</svg>
