<svg xmlns="http://www.w3.org/2000/svg" xmlns:xlink="http://www.w3.org/1999/xlink" width="93.10052" height="93.10052" viewBox="0 0 93.10052 93.10052">
  <defs>
    <linearGradient id="Degradado_sin_nombre_39" data-name="Degradado sin nombre 39" x1="46.55026" y1="0.44513" x2="46.55026" y2="100.44651" gradientUnits="userSpaceOnUse">
      <stop offset="0.00134" stop-color="#ffffb8"/>
      <stop offset="0.99955" stop-color="#c89600"/>
    </linearGradient>
    <linearGradient id="Degradado_sin_nombre_66" data-name="Degradado sin nombre 66" x1="23.15872" y1="69.64367" x2="71.50176" y2="22.70595" gradientUnits="userSpaceOnUse">
      <stop offset="0" stop-color="#1c1432"/>
      <stop offset="0.99554" stop-color="#43314f"/>
    </linearGradient>
    <linearGradient id="linear-gradient" x1="16.59226" y1="48.10015" x2="76.23242" y2="48.10015" gradientTransform="translate(-16.54338 27.0049) rotate(-27.94356)" gradientUnits="userSpaceOnUse">
      <stop offset="0.00286" stop-color="#eea300"/>
      <stop offset="0.04591" stop-color="#efac16"/>
      <stop offset="0.14518" stop-color="#f0bd42"/>
      <stop offset="0.24533" stop-color="#f0cc67"/>
      <stop offset="0.34491" stop-color="#f1d784"/>
      <stop offset="0.44374" stop-color="#f2e099"/>
      <stop offset="0.54152" stop-color="#f2e4a5"/>
      <stop offset="0.63714" stop-color="#f2e6a9"/>
      <stop offset="1" stop-color="#eea300"/>
    </linearGradient>
  </defs>
  <g id="Layer_2" data-name="Layer 2">
    <g id="OBJECTS">
      <g>
        <path d="M46.55029,0A46.55026,46.55026,0,1,0,93.10052,46.55023,46.55025,46.55025,0,0,0,46.55029,0ZM46.744,84.46088A37.71689,37.71689,0,1,1,84.46088,46.744,37.71687,37.71687,0,0,1,46.744,84.46088Z" fill="url(#Degradado_sin_nombre_39)"/>
        <g opacity="0.53">
          <path d="M11.22632,16.25134C16.17424,20.74771,24.13092,8.12567,38.5072,5.074c12.3549-2.62262,21.981,3.95315,27.28089-.91025A46.51865,46.51865,0,0,0,11.22632,16.25134Z" fill="#fff"/>
        </g>
        <g opacity="0.42">
          <path d="M4.45233,47.61924c0-9.76208,2.39673-17.6758,5.35325-17.6758s-1.41207,7.91372-1.41207,17.6758S12.76209,65.295,9.80558,65.295,4.45233,57.38131,4.45233,47.61924Z" fill="#ff9"/>
        </g>
        <g opacity="0.42">
          <path d="M89.45055,47.61924c0,9.76207-2.39673,17.67579-5.35324,17.67579s1.41206-7.91372,1.41206-17.67579-4.36858-17.6758-1.41206-17.6758S89.45055,37.85716,89.45055,47.61924Z" fill="#ff9"/>
        </g>
        <path d="M46.744,6.61139A40.1326,40.1326,0,1,0,86.87659,46.744,40.13263,40.13263,0,0,0,46.744,6.61139Zm0,77.84949A37.71689,37.71689,0,1,1,84.46088,46.744,37.71687,37.71687,0,0,1,46.744,84.46088Z" fill="#ff9"/>
        <circle cx="46.744" cy="46.74401" r="33.69048" fill="url(#Degradado_sin_nombre_66)"/>
        <circle cx="47.57196" cy="47.61924" r="21.64016" fill="#1c1432"/>
      </g>
      <path d="M44.81042,50.86872l1.21433,13.98346L57.73028,44.01542ZM32.29874,38.97584l10.88789,8.83171,12.91986-6.8533ZM44.81042,50.86872l1.21433,13.98346L57.73028,44.01542ZM32.29874,38.97584l10.88789,8.83171,12.91986-6.8533ZM44.81042,50.86872l1.21433,13.98346L57.73028,44.01542ZM32.29874,38.97584l10.88789,8.83171,12.91986-6.8533Zm.5932-17.81962A30.10279,30.10279,0,1,0,73.34088,33.77441,29.96312,29.96312,0,0,0,32.89194,21.15622ZM63.629,40.58,46.29159,71.42169a1.69526,1.69526,0,0,1-.69446.67488,1.71914,1.71914,0,0,1-2.51893-1.39125L41.35291,50.74146,25.796,38.12477a1.71911,1.71911,0,0,1,.26085-2.8657,1.69528,1.69528,0,0,1,.9482-.19654l35.25816,2.94259A1.74321,1.74321,0,0,1,63.629,40.58ZM44.81042,50.86872l12.91986-6.8533L46.02475,64.85218Zm-1.62379-3.06117L32.29874,38.97584l23.80775,1.97841Z" fill="url(#linear-gradient)"/>
    </g>
  </g>
</svg>
