<svg xmlns="http://www.w3.org/2000/svg" xmlns:xlink="http://www.w3.org/1999/xlink" width="93.10052" height="93.10052" viewBox="0 0 93.10052 93.10052">
  <defs>
    <linearGradient id="Degradado_sin_nombre_39" data-name="Degradado sin nombre 39" x1="46.55026" y1="0.44513" x2="46.55026" y2="100.44651" gradientUnits="userSpaceOnUse">
      <stop offset="0.00134" stop-color="#ffffb8"/>
      <stop offset="0.99955" stop-color="#c89600"/>
    </linearGradient>
    <linearGradient id="Degradado_sin_nombre_66" data-name="Degradado sin nombre 66" x1="23.15872" y1="69.64367" x2="71.50176" y2="22.70595" gradientUnits="userSpaceOnUse">
      <stop offset="0" stop-color="#1c1432"/>
      <stop offset="0.99554" stop-color="#43314f"/>
    </linearGradient>
    <linearGradient id="Degradado_sin_nombre_39-2" x1="46.71096" y1="27.10067" x2="46.71096" y2="66.19319" xlink:href="#Degradado_sin_nombre_39"/>
  </defs>
  <g id="Layer_2" data-name="Layer 2">
    <g id="OBJECTS">
      <g>
        <g>
          <path d="M46.55029,0A46.55026,46.55026,0,1,0,93.10052,46.55023,46.55025,46.55025,0,0,0,46.55029,0ZM46.744,84.46088A37.71689,37.71689,0,1,1,84.46088,46.744,37.71687,37.71687,0,0,1,46.744,84.46088Z" fill="url(#Degradado_sin_nombre_39)"/>
          <g opacity="0.53">
            <path d="M11.22632,16.25134C16.17424,20.74771,24.13092,8.12567,38.5072,5.074c12.3549-2.62262,21.981,3.95315,27.28089-.91025A46.51865,46.51865,0,0,0,11.22632,16.25134Z" fill="#fff"/>
          </g>
          <g opacity="0.42">
            <path d="M4.45233,47.61924c0-9.76208,2.39673-17.6758,5.35325-17.6758s-1.41207,7.91372-1.41207,17.6758S12.76209,65.295,9.80558,65.295,4.45233,57.38131,4.45233,47.61924Z" fill="#ff9"/>
          </g>
          <g opacity="0.42">
            <path d="M89.45055,47.61924c0,9.76207-2.39673,17.67579-5.35324,17.67579s1.41206-7.91372,1.41206-17.67579-4.36858-17.6758-1.41206-17.6758S89.45055,37.85716,89.45055,47.61924Z" fill="#ff9"/>
          </g>
          <path d="M46.744,6.61139A40.1326,40.1326,0,1,0,86.87659,46.744,40.13263,40.13263,0,0,0,46.744,6.61139Zm0,77.84949A37.71689,37.71689,0,1,1,84.46088,46.744,37.71687,37.71687,0,0,1,46.744,84.46088Z" fill="#ff9"/>
          <circle cx="46.744" cy="46.74401" r="33.69048" fill="url(#Degradado_sin_nombre_66)"/>
        </g>
        <g id="Twitter">
          <path d="M68.87232,27.82349a18.95655,18.95655,0,0,1-6.11549,2.39163,9.49128,9.49128,0,0,0-7.02414-3.11445,9.74852,9.74852,0,0,0-9.62062,9.86846,10.06734,10.06734,0,0,0,.24779,2.24748A27.096,27.096,0,0,1,26.521,28.9021a10.04855,10.04855,0,0,0-1.30237,4.9667,9.93361,9.93361,0,0,0,4.28166,8.21378,9.44827,9.44827,0,0,1-4.3615-1.23107v.12138a9.8116,9.8116,0,0,0,7.72351,9.67648,9.17606,9.17606,0,0,1-2.536.34729,9.35325,9.35325,0,0,1-1.8118-.175,9.66079,9.66079,0,0,0,8.99006,6.84989,19.00308,19.00308,0,0,1-11.95278,4.227,19.25933,19.25933,0,0,1-2.29639-.1356,26.79554,26.79554,0,0,0,14.75313,4.43026c17.70485,0,27.38333-15.03562,27.38333-28.07772,0-.42923-.00825-.85837-.02477-1.27905a19.75714,19.75714,0,0,0,4.79934-5.10788,18.80171,18.80171,0,0,1-5.52627,1.553A9.84769,9.84769,0,0,0,68.87232,27.82349Z" fill="url(#Degradado_sin_nombre_39-2)"/>
        </g>
      </g>
    </g>
  </g>
</svg>
