<svg xmlns="http://www.w3.org/2000/svg" xmlns:xlink="http://www.w3.org/1999/xlink" width="93.10052" height="93.10052" viewBox="0 0 93.10052 93.10052">
  <defs>
    <linearGradient id="Degradado_sin_nombre_39" data-name="Degradado sin nombre 39" x1="46.55026" y1="0.44513" x2="46.55026" y2="100.44651" gradientUnits="userSpaceOnUse">
      <stop offset="0.00134" stop-color="#ffffb8"/>
      <stop offset="0.99955" stop-color="#c89600"/>
    </linearGradient>
    <linearGradient id="Degradado_sin_nombre_66" data-name="Degradado sin nombre 66" x1="23.15872" y1="69.64367" x2="71.50176" y2="22.70595" gradientUnits="userSpaceOnUse">
      <stop offset="0" stop-color="#1c1432"/>
      <stop offset="0.99554" stop-color="#43314f"/>
    </linearGradient>
    <linearGradient id="Безымянный_градиент_2" data-name="Безымянный градиент 2" x1="310.34676" y1="170.15249" x2="363.64606" y2="170.15249" gradientTransform="translate(-288.89033 -122.92104)" gradientUnits="userSpaceOnUse">
      <stop offset="0" stop-color="#9f734c"/>
      <stop offset="0.13348" stop-color="#ba945f"/>
      <stop offset="0.2778" stop-color="#d2b16e"/>
      <stop offset="0.42194" stop-color="#e3c67a"/>
      <stop offset="0.56432" stop-color="#edd281"/>
      <stop offset="0.70303" stop-color="#f0d683"/>
      <stop offset="0.75465" stop-color="#e8cc7e"/>
      <stop offset="0.84181" stop-color="#d2b26f"/>
      <stop offset="0.95321" stop-color="#af8757"/>
      <stop offset="1" stop-color="#9f734c"/>
    </linearGradient>
  </defs>
  <g id="Layer_2" data-name="Layer 2">
    <g id="OBJECTS">
      <g>
        <path d="M46.55029,0A46.55026,46.55026,0,1,0,93.10052,46.55023,46.55025,46.55025,0,0,0,46.55029,0ZM46.744,84.46088A37.71689,37.71689,0,1,1,84.46088,46.744,37.71687,37.71687,0,0,1,46.744,84.46088Z" fill="url(#Degradado_sin_nombre_39)"/>
        <g opacity="0.53">
          <path d="M11.22632,16.25134C16.17424,20.74771,24.13092,8.12567,38.5072,5.074c12.3549-2.62262,21.981,3.95315,27.28089-.91025A46.51865,46.51865,0,0,0,11.22632,16.25134Z" fill="#fff"/>
        </g>
        <g opacity="0.42">
          <path d="M4.45233,47.61924c0-9.76208,2.39673-17.6758,5.35325-17.6758s-1.41207,7.91372-1.41207,17.6758S12.76209,65.295,9.80558,65.295,4.45233,57.38131,4.45233,47.61924Z" fill="#ff9"/>
        </g>
        <g opacity="0.42">
          <path d="M89.45055,47.61924c0,9.76207-2.39673,17.67579-5.35324,17.67579s1.41206-7.91372,1.41206-17.67579-4.36858-17.6758-1.41206-17.6758S89.45055,37.85716,89.45055,47.61924Z" fill="#ff9"/>
        </g>
        <path d="M46.744,6.61139A40.1326,40.1326,0,1,0,86.87659,46.744,40.13263,40.13263,0,0,0,46.744,6.61139Zm0,77.84949A37.71689,37.71689,0,1,1,84.46088,46.744,37.71687,37.71687,0,0,1,46.744,84.46088Z" fill="#ff9"/>
        <circle cx="46.744" cy="46.74401" r="33.69048" fill="url(#Degradado_sin_nombre_66)"/>
        <circle cx="47.57196" cy="47.61924" r="22.46812" fill="#1c1432"/>
      </g>
      <path d="M38.96826,47.2314a9.13788,9.13788,0,1,0,9.13788-9.13781A9.13774,9.13774,0,0,0,38.96826,47.2314Zm9.13788-12.83831H71.46142a26.64374,26.64374,0,0,0-43.64459-4.43061l7.94733,13.76508A12.83463,12.83463,0,0,1,48.10614,34.39309Zm0,25.67682a12.823,12.823,0,0,1-11.10981-6.42414l-.00872.005L25.309,33.42238A26.65252,26.65252,0,0,0,43.294,73.43929l7.95136-13.77222A12.82239,12.82239,0,0,1,48.10614,60.06991Zm25.10919-21.775H57.31292a12.793,12.793,0,0,1,1.903,15.35089l.00848.005L47.55255,73.867c.18469.00391.368.0141.55359.0141A26.656,26.656,0,0,0,73.21533,38.29488Z" fill="url(#Безымянный_градиент_2)"/>
    </g>
  </g>
</svg>
