<svg xmlns="http://www.w3.org/2000/svg" xmlns:xlink="http://www.w3.org/1999/xlink" width="93.10052" height="93.10052" viewBox="0 0 93.10052 93.10052">
  <defs>
    <linearGradient id="Degradado_sin_nombre_39" data-name="Degradado sin nombre 39" x1="46.55026" y1="0.44513" x2="46.55026" y2="100.44651" gradientUnits="userSpaceOnUse">
      <stop offset="0.00134" stop-color="#ffffb8"/>
      <stop offset="0.99955" stop-color="#c89600"/>
    </linearGradient>
    <linearGradient id="Degradado_sin_nombre_66" data-name="Degradado sin nombre 66" x1="23.15872" y1="69.64367" x2="71.50176" y2="22.70595" gradientUnits="userSpaceOnUse">
      <stop offset="0" stop-color="#1c1432"/>
      <stop offset="0.99554" stop-color="#43314f"/>
    </linearGradient>
    <linearGradient id="Безымянный_градиент_2" data-name="Безымянный градиент 2" x1="23.47044" y1="69.78403" x2="68.93632" y2="69.78403" gradientTransform="translate(2.41571 -24.23377)" gradientUnits="userSpaceOnUse">
      <stop offset="0" stop-color="#9f734c"/>
      <stop offset="0.13348" stop-color="#ba945f"/>
      <stop offset="0.2778" stop-color="#d2b16e"/>
      <stop offset="0.42194" stop-color="#e3c67a"/>
      <stop offset="0.56432" stop-color="#edd281"/>
      <stop offset="0.70303" stop-color="#f0d683"/>
      <stop offset="0.75465" stop-color="#e8cc7e"/>
      <stop offset="0.84181" stop-color="#d2b26f"/>
      <stop offset="0.95321" stop-color="#af8757"/>
      <stop offset="1" stop-color="#9f734c"/>
    </linearGradient>
  </defs>
  <g id="Layer_2" data-name="Layer 2">
    <g id="OBJECTS">
      <g>
        <path d="M46.55029,0A46.55026,46.55026,0,1,0,93.10052,46.55023,46.55025,46.55025,0,0,0,46.55029,0ZM46.744,84.46088A37.71689,37.71689,0,1,1,84.46088,46.744,37.71687,37.71687,0,0,1,46.744,84.46088Z" fill="url(#Degradado_sin_nombre_39)"/>
        <g opacity="0.53">
          <path d="M11.22632,16.25134C16.17424,20.74771,24.13092,8.12567,38.5072,5.074c12.3549-2.62262,21.981,3.95315,27.28089-.91025A46.51865,46.51865,0,0,0,11.22632,16.25134Z" fill="#fff"/>
        </g>
        <g opacity="0.42">
          <path d="M4.45233,47.61924c0-9.76208,2.39673-17.6758,5.35325-17.6758s-1.41207,7.91372-1.41207,17.6758S12.76209,65.295,9.80558,65.295,4.45233,57.38131,4.45233,47.61924Z" fill="#ff9"/>
        </g>
        <g opacity="0.42">
          <path d="M89.45055,47.61924c0,9.76207-2.39673,17.67579-5.35324,17.67579s1.41206-7.91372,1.41206-17.67579-4.36858-17.6758-1.41206-17.6758S89.45055,37.85716,89.45055,47.61924Z" fill="#ff9"/>
        </g>
        <path d="M46.744,6.61139A40.1326,40.1326,0,1,0,86.87659,46.744,40.13263,40.13263,0,0,0,46.744,6.61139Zm0,77.84949A37.71689,37.71689,0,1,1,84.46088,46.744,37.71687,37.71687,0,0,1,46.744,84.46088Z" fill="#ff9"/>
        <circle cx="46.744" cy="46.74401" r="33.69048" fill="url(#Degradado_sin_nombre_66)"/>
      </g>
      <path d="M64.04577,27.6949a22.68035,22.68035,0,0,0-34.17871,29.353l-3.9809,12.3617L37.579,64.14979a22.76641,22.76641,0,0,0,27.76678-4.4115,22.675,22.675,0,0,0-1.3-32.04339Zm-.46692,30.41491A20.34129,20.34129,0,0,1,38.26653,61.7704l-.53851-.3227-7.8974,3.55274,2.69275-8.36194-.35431-.49158A20.27723,20.27723,0,0,1,47.85332,24.10939q.42243-.01767.84131-.01758a20.27456,20.27456,0,0,1,14.88422,34.018ZM55.00213,46.86763A2.90212,2.90212,0,0,0,53.20275,47.93c-.88489.75879-1.72193,1.39051-2.85388,1.1128-1.13214-.27747-2.7909-1.83716-3.61243-2.65851-.82129-.82135-2.381-2.48029-2.65857-3.61237-.27753-1.13208.35419-1.969,1.11285-2.854a2.9013,2.9013,0,0,0,1.06244-1.79932c.2107-1.16748-1.9768-4.4599-2.913-5.24939-2.84638-2.40051-6.03357-.2478-6.30542,2.9953-.33637,4.01221,3.3161,9.3609,7.08844,13.13312,3.77228,3.77228,9.12091,7.42481,13.13312,7.08838,3.243-.27191,5.39575-3.45892,2.99517-6.30548C59.462,48.84449,56.16955,46.65693,55.00213,46.86763Z" fill="url(#Безымянный_градиент_2)"/>
    </g>
  </g>
</svg>
