<svg xmlns="http://www.w3.org/2000/svg" xmlns:xlink="http://www.w3.org/1999/xlink" width="93.10052" height="93.10052" viewBox="0 0 93.10052 93.10052">
  <defs>
    <linearGradient id="Degradado_sin_nombre_39" data-name="Degradado sin nombre 39" x1="46.55026" y1="0.44513" x2="46.55026" y2="100.44651" gradientUnits="userSpaceOnUse">
      <stop offset="0.00134" stop-color="#ffffb8"/>
      <stop offset="0.99955" stop-color="#c89600"/>
    </linearGradient>
    <linearGradient id="Degradado_sin_nombre_66" data-name="Degradado sin nombre 66" x1="23.15872" y1="69.64367" x2="71.50176" y2="22.70595" gradientUnits="userSpaceOnUse">
      <stop offset="0" stop-color="#1c1432"/>
      <stop offset="0.99554" stop-color="#43314f"/>
    </linearGradient>
    <linearGradient id="Degradado_sin_nombre_39-2" x1="46.59797" y1="30.80793" x2="46.59797" y2="63.28832" xlink:href="#Degradado_sin_nombre_39"/>
  </defs>
  <g id="Layer_2" data-name="Layer 2">
    <g id="OBJECTS">
      <g>
        <g>
          <g>
            <path d="M46.55029,0A46.55026,46.55026,0,1,0,93.10052,46.55023,46.55025,46.55025,0,0,0,46.55029,0ZM46.744,84.46088A37.71689,37.71689,0,1,1,84.46088,46.744,37.71687,37.71687,0,0,1,46.744,84.46088Z" fill="url(#Degradado_sin_nombre_39)"/>
            <g opacity="0.53">
              <path d="M11.22632,16.25134C16.17424,20.74771,24.13092,8.12567,38.5072,5.074c12.3549-2.62262,21.981,3.95315,27.28089-.91025A46.51865,46.51865,0,0,0,11.22632,16.25134Z" fill="#fff"/>
            </g>
            <g opacity="0.42">
              <path d="M4.45233,47.61924c0-9.76208,2.39673-17.6758,5.35325-17.6758s-1.41207,7.91372-1.41207,17.6758S12.76209,65.295,9.80558,65.295,4.45233,57.38131,4.45233,47.61924Z" fill="#ff9"/>
            </g>
            <g opacity="0.42">
              <path d="M89.45055,47.61924c0,9.76207-2.39673,17.67579-5.35324,17.67579s1.41206-7.91372,1.41206-17.67579-4.36858-17.6758-1.41206-17.6758S89.45055,37.85716,89.45055,47.61924Z" fill="#ff9"/>
            </g>
            <path d="M46.744,6.61139A40.1326,40.1326,0,1,0,86.87659,46.744,40.13263,40.13263,0,0,0,46.744,6.61139Zm0,77.84949A37.71689,37.71689,0,1,1,84.46088,46.744,37.71687,37.71687,0,0,1,46.744,84.46088Z" fill="#ff9"/>
            <circle cx="46.744" cy="46.74401" r="33.69048" fill="url(#Degradado_sin_nombre_66)"/>
          </g>
          <ellipse cx="46.74402" cy="46.68806" rx="17.52832" ry="13.4366" fill="#1c1432"/>
        </g>
        <path d="M67.24411,33.23093A6.52565,6.52565,0,0,0,62.65,31.27547c-6.41675-.46756-16.042-.46754-16.042-.46754h-.02s-9.6252,0-16.042.46762A6.52818,6.52818,0,0,0,25.95049,33.231c-1.37425,1.4012-1.82134,4.58333-1.82134,4.58333a70.34682,70.34682,0,0,0-.45855,7.474v3.50387a70.31255,70.31255,0,0,0,.45855,7.474s.44708,3.18207,1.82134,4.5833c1.7453,1.84,4.03665,1.78236,5.05692,1.97419,3.66833.355,15.59056.46466,15.59056.46466s9.63527-.01449,16.052-.48208a6.53479,6.53479,0,0,0,4.59412-1.95687c1.37421-1.40123,1.82268-4.58331,1.82268-4.58331a70.31381,70.31381,0,0,0,.45854-7.474V45.28821a70.34527,70.34527,0,0,0-.45854-7.474S68.61832,34.63212,67.24411,33.23093ZM41.86352,53.03781,41.862,40.06271l12.38942,6.5099Z" fill="url(#Degradado_sin_nombre_39-2)"/>
      </g>
    </g>
  </g>
</svg>
